<?xml version="1.0" standalone="no"?>
<!DOCTYPE svg PUBLIC "-//W3C//DTD SVG 20010904//EN"
 "http://www.w3.org/TR/2001/REC-SVG-20010904/DTD/svg10.dtd">
<svg version="1.0" xmlns="http://www.w3.org/2000/svg"
 width="800.000000pt" height="601.000000pt" viewBox="0 0 800.000000 601.000000"
 preserveAspectRatio="xMidYMid meet">

<g transform="translate(0.000000,601.000000) scale(0.100000,-0.100000)"
fill="#000000" stroke="none">
<path d="M2925 4010 l-120 -48 -3 -111 c-2 -94 0 -111 13 -111 8 0 15 -9 15
-20 0 -10 28 -63 63 -117 86 -133 141 -231 226 -401 l72 -144 -111 -180 c-62
-99 -110 -182 -107 -184 4 -4 129 197 258 411 l18 31 -93 189 c-98 199 -172
334 -263 474 -30 46 -51 87 -46 92 4 4 65 28 135 53 l127 45 64 -102 c75 -118
123 -202 198 -344 30 -57 57 -103 60 -103 3 0 86 128 184 285 98 157 181 287
184 290 4 2 23 -9 42 -24 l37 -27 -200 -317 -200 -317 65 -163 c125 -314 198
-567 237 -821 10 -72 18 -131 16 -133 -5 -6 -269 -53 -273 -50 -1 2 -12 57
-23 122 -11 65 -32 166 -46 224 -26 105 -120 406 -150 476 l-15 37 -58 -93
c-447 -720 -586 -938 -502 -788 17 31 31 58 31 61 0 2 -13 3 -29 0 -16 -2 -32
1 -35 7 -4 6 56 114 133 240 l139 229 -2 233 c-2 191 -6 246 -21 299 -96 345
-370 631 -714 745 l-55 18 -23 -29 -23 -29 0 33 c0 28 -5 35 -35 48 -19 7 -39
14 -44 14 -5 0 -46 -58 -91 -129 l-81 -130 3 -93 c3 -89 4 -93 26 -96 15 -2
33 5 48 19 l24 22 0 -27 c0 -19 -22 -54 -79 -120 -97 -115 -154 -210 -195
-324 l-31 -87 0 -235 c1 -228 1 -237 27 -307 35 -98 72 -158 132 -218 204
-202 579 -191 859 24 l68 52 -52 -83 c-29 -46 -95 -152 -146 -237 l-95 -154 0
-96 0 -96 43 -27 c40 -24 44 -25 55 -10 6 9 134 215 284 457 150 242 310 500
355 573 l83 133 20 -53 c75 -201 150 -481 176 -653 9 -61 21 -124 26 -141 6
-17 10 -38 10 -48 0 -16 6 -17 43 -12 23 3 88 11 145 17 l102 12 0 155 c0 171
-19 309 -71 517 -32 129 -118 393 -168 515 -17 41 -31 81 -31 87 0 11 259 433
326 533 21 30 24 46 24 126 l0 92 -42 31 c-23 17 -45 31 -48 31 -3 0 -86 -128
-184 -285 -98 -157 -181 -285 -185 -285 -3 0 -28 44 -56 97 -59 114 -206 364
-241 411 -14 18 -30 30 -35 27 -5 -4 -9 3 -9 13 0 11 -10 26 -23 35 -21 14
-31 11 -142 -33z m144 7 c-7 -6 -240 -87 -250 -87 -5 0 -9 6 -9 13 0 6 53 33
118 59 100 40 119 44 131 32 8 -7 13 -15 10 -17z m-965 -37 c5 -5 -27 -54 -76
-117 -66 -83 -91 -109 -112 -111 l-27 -3 40 63 c23 35 58 91 78 126 34 55 41
62 63 56 14 -3 29 -9 34 -14z m148 -44 c167 -62 300 -150 420 -274 172 -180
265 -378 284 -604 15 -191 -41 -334 -190 -484 -126 -126 -251 -196 -412 -229
-148 -31 -313 -8 -422 58 -155 93 -252 284 -252 494 0 232 111 450 338 664
l102 96 -62 28 c-35 15 -65 29 -67 31 -5 4 182 243 191 244 4 0 36 -11 70 -24z
m412 -1775 c-14 -23 -29 -41 -31 -41 -3 0 1 10 9 23 8 12 20 33 27 45 7 13 15
21 18 19 2 -3 -8 -24 -23 -46z m1135 -13 c0 -16 -2 -18 -6 -8 -3 8 -11 18 -17
22 -7 5 -4 8 7 8 11 0 17 -7 16 -22z m-46 5 c-7 -2 -21 -2 -30 0 -10 3 -4 5
12 5 17 0 24 -2 18 -5z m-60 -10 c-7 -2 -21 -2 -30 0 -10 3 -4 5 12 5 17 0 24
-2 18 -5z m-28 -12 c34 -7 35 -9 10 -9 -16 0 -43 4 -60 8 -42 11 -1 11 50 1z
m103 2 c-10 -2 -28 -2 -40 0 -13 2 -5 4 17 4 22 1 32 -1 23 -4z m-173 -14 c15
-7 12 -8 -17 -5 -23 3 -39 0 -42 -7 -2 -7 -5 -4 -5 6 -1 19 30 22 64 6z"/>
<path d="M2170 3563 c-163 -185 -233 -545 -160 -826 26 -105 62 -168 132 -232
92 -86 196 -107 295 -60 162 75 243 244 245 505 1 103 -3 137 -20 191 -46 141
-185 302 -354 413 -47 31 -88 56 -91 56 -3 0 -24 -21 -47 -47z m138 -200 c175
-116 301 -265 344 -406 19 -63 20 -78 10 -141 -31 -197 -111 -314 -250 -366
-60 -23 -88 -22 -175 6 -142 46 -246 258 -235 478 8 150 81 335 176 447 19 21
36 39 39 39 3 0 44 -26 91 -57z"/>
<path d="M2300 2993 c-68 -30 -129 -58 -135 -63 -6 -5 -9 -48 -9 -100 2 -108
38 -254 61 -246 8 3 13 -2 13 -14 0 -27 21 -70 35 -70 6 0 64 21 128 46 l117
46 0 97 c0 70 -4 103 -15 117 -8 10 -15 35 -15 55 0 37 -36 168 -48 180 -4 3
-63 -18 -132 -48z m144 -15 c27 -96 34 -85 -106 -149 l-128 -57 -20 67 c-11
38 -20 72 -20 77 0 8 232 112 252 114 4 0 13 -24 22 -52z m41 -179 c4 -11 5
-22 3 -24 -1 -2 -52 -22 -113 -45 -102 -39 -110 -40 -122 -24 -7 10 -12 19
-10 20 6 7 213 92 224 93 6 1 15 -8 18 -20z"/>
<path d="M5577 4024 c-4 -4 -7 -60 -7 -125 l0 -118 -61 24 c-132 52 -255 57
-340 15 -134 -67 -250 -296 -295 -583 -24 -147 -15 -587 14 -709 45 -188 115
-320 230 -430 122 -118 222 -160 377 -161 78 0 114 5 165 22 199 69 359 223
471 453 62 130 70 166 67 323 l-3 138 -124 39 c-67 22 -126 37 -129 34 -11
-12 -21 -106 -21 -219 -2 -376 -163 -564 -390 -456 -66 32 -179 150 -233 244
-167 288 -235 694 -157 933 61 185 207 196 369 29 71 -74 110 -144 188 -341 7
-16 24 -3 116 85 l109 104 -7 150 c-4 82 -17 240 -29 350 l-22 200 -141 3
c-77 1 -143 -1 -147 -4z m281 -33 l4 -23 -134 7 c-73 4 -136 9 -140 12 -5 2
-8 11 -8 19 0 12 22 14 138 12 136 -3 137 -3 140 -27z m4 -70 c3 -3 15 -98 27
-211 l20 -205 -97 -92 c-53 -51 -99 -93 -102 -93 -3 0 -20 37 -37 83 -91 231
-239 377 -382 377 -51 0 -57 -2 -97 -45 -76 -79 -111 -256 -100 -501 21 -461
201 -862 441 -980 104 -50 216 -29 284 53 76 91 109 209 118 421 5 102 9 132
19 128 7 -3 59 -19 116 -37 57 -18 107 -35 111 -39 9 -8 -34 -131 -71 -205
-66 -133 -182 -267 -293 -341 -66 -44 -184 -94 -217 -93 -9 0 8 8 38 18 136
44 129 46 -140 46 l-249 0 37 -19 c20 -11 55 -25 77 -33 39 -13 39 -13 6 -8
-51 8 -128 46 -198 98 -146 109 -247 301 -289 548 -22 134 -15 403 14 529 58
251 160 433 276 492 85 43 204 35 354 -26 93 -38 90 -41 67 64 -8 36 -14 70
-15 76 0 12 269 8 282 -5z m321 -1058 c4 -2 7 -13 7 -25 0 -15 -4 -18 -17 -13
-10 4 -54 20 -98 35 -127 44 -135 48 -129 64 4 11 26 7 117 -21 62 -19 115
-37 120 -40z m-640 -730 c-23 -2 -64 -2 -90 0 -26 2 -7 3 42 3 50 0 71 -1 48
-3z"/>
<path d="M4499 3889 c-185 -145 -200 -159 -192 -172 3 -5 -3 -7 -13 -3 -11 3
-29 -3 -41 -14 -21 -17 -23 -27 -23 -117 1 -90 3 -100 25 -126 25 -28 25 -28
55 -10 17 9 30 26 30 36 0 16 3 17 15 7 18 -15 23 -12 140 83 44 36 81 64 83
63 1 -2 -16 -113 -37 -247 -55 -334 -78 -495 -101 -705 -19 -171 -40 -506 -40
-644 l0 -66 118 -38 c64 -21 122 -41 128 -43 8 -3 13 54 17 184 11 314 86 905
197 1548 17 102 30 212 31 275 l2 105 -121 3 -120 3 -153 -122z m381 98 c0 -8
-20 -133 -45 -278 -96 -574 -172 -1151 -182 -1392 -5 -129 -8 -148 -22 -144
-9 2 -58 17 -108 33 l-93 28 0 113 c0 211 52 629 151 1223 27 162 49 296 49
298 0 2 -35 -24 -77 -58 -43 -33 -102 -79 -132 -102 l-53 -42 -25 28 c-13 15
-23 32 -21 37 2 4 77 67 168 138 l165 131 113 0 c87 0 112 -3 112 -13z m-571
-311 l22 -24 -23 -16 c-21 -15 -24 -15 -47 8 -20 21 -22 27 -11 40 17 22 33
20 59 -8z m241 -1521 c41 -13 70 -24 64 -24 -6 -1 -48 10 -94 24 -94 28 -93
28 -86 17 3 -5 32 -17 66 -27 33 -10 58 -20 56 -23 -11 -10 -136 40 -136 55 0
17 17 14 130 -22z m100 -35 c0 -5 -2 -10 -4 -10 -3 0 -8 5 -11 10 -3 6 -1 10
4 10 6 0 11 -4 11 -10z"/>
<path d="M4608 2193 c7 -3 16 -2 19 1 4 3 -2 6 -13 5 -11 0 -14 -3 -6 -6z"/>
<path d="M3530 2185 c0 -11 7 -14 23 -10 12 3 40 9 62 14 39 9 38 9 -22 10
-50 1 -63 -2 -63 -14z"/>
</g>
</svg>
