<?xml version="1.0" encoding="utf-8" ?>
<svg xmlns="http://www.w3.org/2000/svg" xmlns:xlink="http://www.w3.org/1999/xlink" width="1024" height="1024">
	<path fill="#0DD2CC" d="M582.325 827.577C584.524 822.469 588.885 817.104 591.996 812.425C592.22 827.533 592.039 842.664 592.388 857.765Q587.444 858.912 582.488 860.004C582.659 853.79 584.144 831.779 582.325 827.577Z"/>
	<path fill="#0DD2CC" d="M742.493 731.898Q742.557 753.227 742.939 774.552C739.634 777.597 736.432 780.778 733.089 783.774C733.612 774.84 733.37 765.781 733.392 756.826C733.407 750.913 733.847 744.644 733.162 738.789C735.692 736.242 739.574 734.04 742.493 731.898Z"/>
	<path fill="#0DD2CC" d="M762.041 710.72C761.773 725.511 761.763 740.486 762.147 755.275C758.631 758.527 755.629 762.145 752.248 765.501Q752.498 751.417 752.542 737.331C752.565 732.419 752.856 727.281 752.359 722.4Q757.293 716.637 762.041 710.72Z"/>
	<path fill="#0DD2CC" d="M724.131 743.756Q724.355 766.716 724.301 789.677Q719.479 794.115 714.55 798.434L714.561 747.046C717.853 746.126 720.965 745.042 724.131 743.756Z"/>
	<path fill="#0DD2CC" d="M185.317 386.501C185.948 401.978 185.036 417.795 185.003 433.307C184.989 439.704 184.582 446.505 185.626 452.827C182.32 454.581 178.94 456.147 175.543 457.714C175.521 445.684 174.444 432.062 176.163 420.244C177.807 408.942 182.1 397.46 185.317 386.501Z"/>
	<path fill="#0DD2CC" d="M695.876 747.727C698.815 748.296 701.702 748.814 704.684 749.11C705.412 767.636 704.967 786.295 705.091 804.841C701.927 806.959 698.922 809.086 696.049 811.588C695.333 790.384 695.928 768.95 695.876 747.727Z"/>
	<path fill="#0DD2CC" d="M401.786 184.548Q406.438 183.143 411.172 182.047C410.422 193.918 410.707 205.884 410.637 217.775C410.594 225.033 409.9 232.963 410.81 240.145C407.853 245.022 404.046 249.943 401.537 255.015C401.735 231.552 400.996 207.995 401.786 184.548Z"/>
	<path fill="#0DD2CC" d="M610.651 781.524L610.97 851.946C607.788 853.166 604.757 854.15 601.413 854.822C601.435 846.879 602.741 801.821 600.45 797.963C603.637 792.39 606.98 786.791 610.651 781.524Z"/>
	<path fill="#0DD2CC" d="M344.016 206.608L353.847 201.923C353.208 225.09 352.96 248.651 353.632 271.811C350.571 273.584 347.435 275.261 344.423 277.111C343.243 253.765 344.022 229.996 344.016 206.608Z"/>
	<path fill="#0DD2CC" d="M816.434 360.986C819.537 367.673 823.799 375.058 825.534 382.195C827.372 389.762 826.479 399.044 826.502 406.845L826.501 445.004Q821.581 442.22 816.529 439.682C817.621 429.728 816.867 418.951 816.897 408.903C816.945 393.007 817.623 376.84 816.434 360.986Z"/>
	<path fill="#0DD2CC" d="M325.364 216.822Q330.378 213.839 335.547 211.133C333.796 234.981 334.488 259.421 334.561 283.338L325.333 289.057L325.364 216.822Z"/>
	<path fill="#0DD2CC" d="M362.928 198.21C366.214 196.558 369.508 195.269 372.978 194.054L372.965 263.408L363.163 267.492Q363.05 245.55 363.286 223.61C363.334 215.289 363.888 206.464 362.928 198.21Z"/>
	<path fill="#0DD2CC" d="M381.963 190.613C385.275 189.497 388.642 188.532 391.989 187.526L392.061 257.266L382.093 260.287C381.817 237.066 382.37 213.833 381.963 190.613Z"/>
	<path fill="#0DD2CC" d="M686.445 742.262L686.519 817.659C683.405 819.469 680.29 821.106 677.019 822.616C677.086 797.738 677.743 772.678 677.056 747.818C680.751 746.471 683.545 745.019 686.445 742.262Z"/>
	<path fill="#0DD2CC" d="M306.253 228.687C309.608 226.626 312.949 224.579 316.424 222.725L316.359 268.921C316.314 275.383 315.246 290.484 316.591 295.455C313.332 298.257 309.966 300.862 306.54 303.454C305.825 295.378 306.188 286.946 306.177 278.821Q306.384 253.754 306.253 228.687Z"/>
	<path fill="#0DD2CC" d="M288.431 242.078C291.317 239.425 294.538 237.228 297.732 234.968L297.91 283.825C297.92 292.803 297.479 302.054 298.163 310.999C295.027 314.482 291.65 317.703 288.276 320.952C287.443 294.749 288.133 268.299 288.431 242.078Z"/>
	<path fill="#0DD2CC" d="M279.028 249.082C278.855 257.846 278.38 327.025 279.634 330.575Q275.118 336.689 270.272 342.546C268.559 334.498 269.61 322.075 269.621 313.645L269.629 256.954C272.926 254.561 275.953 251.752 279.028 249.082Z"/>
	<path fill="#0DD2CC" d="M658.355 739.683C660.802 743.35 663.372 746.295 667.626 747.896C666.713 774.503 667.877 801.4 667.744 828.045C664.549 830.007 661.213 831.75 657.92 833.542C657.984 802.274 657.395 770.937 658.355 739.683Z"/>
	<path fill="#0DD2CC" d="M648.375 748.559L648.442 837.945C645.338 839.557 642.262 841 639.003 842.27L639.044 749.392C642.39 749.689 645.154 749.424 648.375 748.559Z"/>
	<path fill="#0DD2CC" d="M629.095 750.56C630.33 760.332 629.641 770.905 629.741 780.814Q630.004 813.144 629.754 845.475L620.204 849.163L620.366 791.585C620.349 783.377 621.143 774.007 619.815 765.967C620.996 761.905 626.639 754.575 629.095 750.56Z"/>
	<path fill="#0DD2CC" d="M194.208 366.946C197.959 360.235 200.399 352.518 203.726 345.55C204.884 355.903 204.391 366.746 204.401 377.162C204.422 399.212 203.818 421.407 204.536 443.438C201.107 445.322 197.644 447.007 194.077 448.615C194.07 421.469 195.197 394.053 194.208 366.946Z"/>
	<path fill="#1A284F" d="M122.368 603.095C126.161 602.926 129.563 603.191 133.003 604.95Q133.737 605.327 134.429 605.775Q135.121 606.224 135.765 606.739Q136.409 607.254 136.998 607.832Q137.587 608.409 138.116 609.042Q138.644 609.675 139.106 610.358Q139.569 611.041 139.961 611.767Q140.352 612.493 140.669 613.254Q140.987 614.016 141.226 614.805Q141.357 615.227 141.465 615.655Q141.574 616.084 141.661 616.517Q141.747 616.95 141.811 617.387Q141.875 617.825 141.917 618.265Q141.958 618.704 141.977 619.146Q141.996 619.587 141.992 620.029Q141.988 620.471 141.961 620.912Q141.935 621.353 141.885 621.792Q141.836 622.231 141.764 622.667Q141.692 623.103 141.598 623.535Q141.504 623.967 141.387 624.393Q141.271 624.819 141.133 625.239Q140.995 625.659 140.835 626.071Q140.675 626.483 140.495 626.886Q140.314 627.289 140.113 627.683Q139.912 628.076 139.691 628.459C136.868 633.378 132.624 635.588 127.356 637C123.682 637.11 120.373 637.04 116.991 635.347Q116.597 635.146 116.213 634.924Q115.83 634.703 115.458 634.462Q115.087 634.222 114.728 633.962Q114.369 633.703 114.024 633.425Q113.679 633.148 113.349 632.853Q113.019 632.558 112.704 632.247Q112.39 631.935 112.091 631.608Q111.793 631.281 111.512 630.939Q111.231 630.597 110.968 630.241Q110.705 629.885 110.46 629.516Q110.216 629.147 109.99 628.765Q109.765 628.384 109.56 627.992Q109.355 627.6 109.17 627.198Q108.985 626.795 108.821 626.384Q108.656 625.973 108.514 625.554Q108.371 625.135 108.25 624.709Q108.128 624.284 108.029 623.853Q107.929 623.423 107.852 622.987Q107.775 622.552 107.72 622.113Q107.666 621.675 107.635 621.234Q107.603 620.793 107.595 620.351Q107.586 619.909 107.601 619.467Q107.615 619.025 107.653 618.585Q107.69 618.144 107.751 617.706Q107.811 617.268 107.894 616.834Q107.977 616.4 108.082 615.97Q108.188 615.541 108.316 615.118Q108.443 614.695 108.593 614.279Q108.742 613.863 108.913 613.455Q109.084 613.047 109.276 612.649Q109.468 612.251 109.68 611.863Q109.893 611.475 110.125 611.099C112.961 606.496 117.248 604.271 122.368 603.095Z"/>
	<path fill="#1A284F" d="M859.483 337.547C863.174 337.299 866.306 337.446 869.751 339.028Q870.564 339.404 871.336 339.86Q872.109 340.315 872.832 340.844Q873.555 341.374 874.222 341.972Q874.889 342.571 875.494 343.232Q876.099 343.894 876.635 344.612Q877.171 345.33 877.633 346.098Q878.095 346.866 878.479 347.676Q878.863 348.486 879.165 349.33C880.753 353.827 880.337 358.742 878.224 363C875.649 368.188 871.579 370.815 866.289 372.608C862.189 373.233 858.225 372.945 854.465 371.06Q854.067 370.862 853.68 370.643Q853.294 370.425 852.918 370.188Q852.543 369.95 852.18 369.693Q851.818 369.437 851.469 369.162Q851.119 368.887 850.785 368.595Q850.45 368.303 850.131 367.994Q849.811 367.685 849.508 367.36Q849.205 367.036 848.919 366.696Q848.633 366.356 848.364 366.002Q848.096 365.648 847.846 365.281Q847.596 364.914 847.365 364.534Q847.134 364.155 846.923 363.764Q846.711 363.373 846.52 362.972Q846.329 362.571 846.159 362.161Q845.988 361.75 845.839 361.332Q845.69 360.914 845.562 360.488C844.191 355.826 844.879 350.464 847.224 346.226C849.979 341.247 854.198 338.98 859.483 337.547Z"/>
	<path fill="#0DD2CC" d="M241.508 288.254Q241.39 324.248 241.707 360.241C241.786 370.122 240.853 380.732 242.114 390.512Q236.988 396.395 231.933 402.339C232.131 385.818 231.911 369.277 231.93 352.753C231.95 335.66 232.202 318.54 231.797 301.451C234.508 296.596 237.886 292.454 241.508 288.254Z"/>
	<path fill="#0DD2CC" d="M798.533 329.572C801.982 334.628 805.166 339.798 808.352 345.021Q808.751 390.389 808.095 435.754C804.659 434.05 801.2 432.387 797.9 430.426C798.381 406.93 797.992 383.379 798.12 359.873C798.174 349.91 797.663 339.481 798.533 329.572Z"/>
	<path fill="#0DD2CC" d="M222.495 314.353C222.944 323.336 222.645 332.442 222.67 341.44L222.905 389.76C222.949 398.18 221.979 407.799 223.207 416.06C221.857 419.693 217.156 437.605 215.014 438.632C214.477 438.89 214.028 438.99 213.466 439.144L213.028 369.707C213.02 356.12 213.72 342.449 213.173 328.878C216.207 324.002 219.141 319.017 222.495 314.353Z"/>
	<path fill="#0DD2CC" d="M260.171 266.3C260.794 274.303 260.418 282.596 260.422 290.623L260.434 333.881C260.436 341.238 259.721 349.432 260.853 356.67C259.844 362.407 259.638 369.361 260.712 375.112L250.518 382.961C251.255 361.851 250.469 340.496 250.45 319.362C250.438 306.62 251.551 289.59 250.064 277.29C253.649 273.764 256.934 270.145 260.171 266.3Z"/>
	<path fill="#0DD2CC" d="M778.583 304.092C782.336 308.768 786.05 313.523 789.331 318.548C787.861 327.412 788.94 344.125 788.968 353.613L788.999 426.012C785.606 424.065 782.229 421.97 778.608 420.474L778.71 346.286C778.825 332.73 780.068 317.386 778.583 304.092Z"/>
	<path fill="#0DD2CC" d="M759.542 295.696L763.786 288.629C765.803 290.979 767.774 293.461 769.98 295.633Q769.248 355.94 769.477 416.249C766.098 414.79 761.884 413.426 759.02 411.156C759.371 410.316 759.602 409.655 759.652 408.734C760.317 396.529 759.574 383.965 759.554 371.718L759.542 295.696Z"/>
	<path fill="#0DD2CC" d="M749.975 308.3C751.02 326.215 750.389 344.47 750.381 362.435C750.378 370.312 749.738 378.699 750.896 386.466C751.848 392.854 755.965 405.066 758.55 411.05C750.773 409.08 737.963 401.608 730.126 397.954Q729.3 385.564 727.311 373.307Q725.322 361.05 722.188 349.035C725.794 343.859 728.768 338.34 732.136 333.021C732.309 339.437 732.153 345.846 732.284 352.256C735.339 357.362 738.102 362.619 741.111 367.74C740.869 361.615 739.499 327.726 740.515 324.192C742.083 318.733 746.617 312.877 749.975 308.3Z"/>
	<path fill="#F8904B" d="M211.566 732.577C213.215 732.447 214.993 732.234 216.629 732.532C219.107 732.984 221.683 734.404 223.11 736.516C224.493 738.564 224.977 741.526 224.406 743.921C223.26 748.733 218.53 754.831 216.005 759.131L192.591 798.528C189.214 804.173 186.309 810.593 182.364 815.814C181.077 817.516 179.138 818.403 177.286 819.363C175.501 819.513 173.712 819.648 171.968 819.138C169.183 818.324 166.575 816.259 165.325 813.623C164.133 811.11 164.045 808.01 165.135 805.454C169.534 795.143 180.055 779.804 186.072 769.583C192.223 759.136 197.978 746.437 205.349 736.971C207.123 734.693 208.922 733.661 211.566 732.577Z"/>
	<path fill="#0DD2CC" d="M838.323 189.115C839.013 189.149 839.691 189.215 840.372 189.342C843.082 189.846 845.626 191.418 847.137 193.757C848.608 196.036 848.863 198.896 848.163 201.486C847.324 204.59 845.169 207.732 843.506 210.469C839.433 217.17 795.284 286.416 792.78 287.805L791.644 287.296C787.457 283.263 783.638 278.884 779.227 275.08C790.58 256.009 802.556 237.38 814.546 218.708C819.311 211.288 823.698 203.546 828.632 196.25C831.468 192.056 833.215 190.091 838.323 189.115Z"/>
	<path fill="#0DD2CC" d="M697.256 126.713C686.162 145.275 675.102 163.654 664.75 182.653C661.004 189.528 656.998 196.357 653.687 203.448C699.562 185.209 746.177 168.782 792.278 151.122C806.998 145.483 821.918 140.125 836.444 134.004C832.178 142.747 826.383 150.374 821.115 158.505Q806.718 181.079 791.995 203.441L720.659 315.53C714.573 311.044 697.279 291.13 691.698 290.656C687.69 286.731 686.98 280.555 683.214 276.882C680.619 274.35 678.411 274.399 675.011 274.438C666.712 264.397 651.325 254.295 640.07 247.873C638.689 246.064 636.753 245.183 634.8 244.124C625.502 238.073 616.917 232.256 606.704 227.74L603.686 226.418C602.62 226.554 601.579 226.655 600.505 226.697L600.598 225.734C599.58 225.01 598.89 224.807 597.665 224.591C595.703 222.76 592.735 216.121 591.173 213.45L567.74 173.351C577.722 170.291 587.432 166.474 597.296 163.07Q647.522 145.567 697.256 126.713Z"/>
	<path fill="#1A284F" d="M448.111 182.066C459.009 165.999 469.136 149.304 479.45 132.858C483.51 126.384 504.613 88.9827 508.906 86.7088C510.249 85.9976 512.333 85.9924 513.771 86.3413C515.581 86.7805 516.429 87.9067 517.476 89.3382C523.526 97.6083 528.301 107.379 533.486 116.23C544.675 135.331 555.858 154.68 567.74 173.351L591.173 213.45C592.735 216.121 595.703 222.76 597.665 224.591C598.89 224.807 599.58 225.01 600.598 225.734L600.505 226.697C601.579 226.655 602.62 226.554 603.686 226.418L606.704 227.74C616.917 232.256 625.502 238.073 634.8 244.124C636.753 245.183 638.689 246.064 640.07 247.873C651.325 254.295 666.712 264.397 675.011 274.438C678.411 274.399 680.619 274.35 683.214 276.882C686.98 280.555 687.69 286.731 691.698 290.656C696.96 298.563 703.473 305.707 708.143 313.976C715.175 326.426 717.084 336.638 722.188 349.035Q725.322 361.05 727.311 373.307Q729.3 385.564 730.126 397.954C737.963 401.608 750.773 409.08 758.55 411.05L759.02 411.156C761.884 413.426 766.098 414.79 769.477 416.249L778.608 420.474C782.229 421.97 785.606 424.065 788.999 426.012Q793.49 428.138 797.9 430.426C801.2 432.387 804.659 434.05 808.095 435.754C810.897 437.079 813.687 438.447 816.529 439.682Q821.581 442.22 826.501 445.004C829.479 446.689 832.44 448.471 835.539 449.921C839.329 452.063 843.096 454.352 847.05 456.177L847.596 456.527C859.536 464.04 943.097 503.27 944.84 511.368C945.21 513.089 944.902 514.737 943.889 516.188C942.793 517.759 941.106 518.945 939.489 519.926C931.436 524.808 922.221 528.625 913.754 532.801C901.001 539.091 888.54 545.961 875.855 552.389C865.905 557.43 855.28 562.078 845.758 567.837C842.591 584.058 840.414 600.174 836.354 616.253Q834.618 623.212 832.58 630.088Q830.541 636.964 828.203 643.744Q825.866 650.524 823.234 657.195Q820.602 663.867 817.68 670.417Q814.759 676.967 811.554 683.383Q808.349 689.798 804.866 696.068Q801.383 702.337 797.629 708.448Q793.876 714.559 789.858 720.5C784.516 728.423 778.763 736.724 772.211 743.688C770.347 737.309 765.165 714.917 762.445 710.896L762.041 710.72Q757.293 716.637 752.359 722.4C749.13 725.64 745.905 728.847 742.493 731.898C739.574 734.04 735.692 736.242 733.162 738.789C730.173 740.49 727.188 742.179 724.131 743.756C720.965 745.042 717.853 746.126 714.561 747.046C711.273 747.897 708.041 748.588 704.684 749.11C701.702 748.814 698.815 748.296 695.876 747.727C693.539 746.259 691.781 744.491 689.866 742.534C689.034 741.684 688.666 741.228 687.473 740.83L686.445 742.262C683.545 745.019 680.751 746.471 677.056 747.818C673.832 748.601 670.864 748.307 667.626 747.896C663.372 746.295 660.802 743.35 658.355 739.683C655.324 743.558 652.861 746.354 648.375 748.559C645.154 749.424 642.39 749.689 639.044 749.392C636.031 747.869 634.335 746.571 632.369 743.855C631.224 746.026 629.874 748.231 629.095 750.56C626.639 754.575 620.996 761.905 619.815 765.967C616.709 770.935 612.911 776.114 610.651 781.524C606.98 786.791 603.637 792.39 600.45 797.963C597.494 802.619 594.398 807.453 591.996 812.425C588.885 817.104 584.524 822.469 582.325 827.577C579.008 832.428 575.902 837.597 573.236 842.836C570.153 847.742 567.134 852.701 563.813 857.45C558.928 863.523 555.468 871.212 551.512 877.914L525.825 920.82C522.823 925.76 519.328 933.375 514.87 937.104C513.727 938.06 512.667 938.444 511.17 938.2C509.385 937.909 508.108 936.678 507.037 935.322C501.634 928.485 497.402 919.858 492.827 912.41C479.832 891.258 467.537 869.735 454.012 848.902C412.897 864.56 371.135 878.59 329.754 893.529C339.177 869.142 351.502 844.628 362.449 820.762C354.163 823.549 345.798 826.037 337.554 828.958C314.527 837.118 291.756 846.028 268.738 854.171L205.405 876.74C196.128 880.041 186.749 883.021 177.55 886.544C184.237 872.028 193.799 858.356 201.774 844.466L253.092 754.857C256.811 748.377 260.361 741.801 264.104 735.336C267.736 729.062 271.726 722.942 274.626 716.286C274.159 716.325 273.691 716.359 273.223 716.384C247.317 717.786 224.503 711.039 204.925 693.438C184.494 675.073 161.825 644.587 160.506 616.384C159.83 601.941 164.668 584.655 178.228 577.169C181.722 575.24 187.129 573.876 189.824 570.892L189.279 570.748L189.739 570.659C163.737 557.433 136.651 546.412 110.193 534.148C101.315 530.032 91.8515 526.258 83.3498 521.432C81.7134 520.503 80.1882 519.483 79.1353 517.885C77.7385 515.766 77.2262 513.1 77.8838 510.635C78.4898 508.364 79.9279 506.487 81.8267 505.139C90.1696 499.216 101.206 495.036 110.444 490.54Q131.511 480.279 152.342 469.547C160.079 465.631 168.03 462.047 175.543 457.714C178.94 456.147 182.32 454.581 185.626 452.827C188.479 451.513 191.272 450.032 194.077 448.615C197.644 447.007 201.107 445.322 204.536 443.438C207.432 441.865 210.28 440.044 213.466 439.144C214.028 438.99 214.477 438.89 215.014 438.632C217.156 437.605 221.857 419.693 223.207 416.06C225.922 411.37 228.964 406.871 231.933 402.339Q236.988 396.395 242.114 390.512C244.822 387.909 247.713 385.461 250.518 382.961L260.712 375.112C259.638 369.361 259.844 362.407 260.853 356.67C263.729 351.797 267.136 347.253 270.272 342.546Q275.118 336.689 279.634 330.575C282.399 327.282 285.392 324.144 288.276 320.952C291.65 317.703 295.027 314.482 298.163 310.999C300.829 308.367 303.734 305.938 306.54 303.454C309.966 300.862 313.332 298.257 316.591 295.455C319.393 293.206 322.422 291.167 325.333 289.057L334.561 283.338C337.958 281.531 341.425 279.532 344.423 277.111C347.435 275.261 350.571 273.584 353.632 271.811C356.735 270.251 359.992 268.914 363.163 267.492L372.965 263.408C375.958 262.222 379.028 261.27 382.093 260.287L392.061 257.266C395.179 256.236 398.468 256.06 401.537 255.015C404.046 249.943 407.853 245.022 410.81 240.145C414.175 235.118 417.567 229.931 420.348 224.557C423.916 220.124 426.92 214.783 430.109 210.033C433.176 205.873 435.753 201.064 438.47 196.652C441.916 192.03 444.941 186.894 448.111 182.066Z"/>
	<path fill="#0DD2CC" d="M729.927 401.177C730.444 401.516 730.997 401.847 731.418 402.311C733.297 404.379 733.038 408.26 732.999 410.857C731.647 410.897 731.306 411.196 730.209 410.323C729.314 407.505 729.867 404.132 729.927 401.177Z"/>
	<path fill="#0DD2CC" d="M454.645 383.075C455.903 382.968 457.43 382.662 458.636 383.094C459.305 383.333 459.354 383.899 459.634 384.494C459.622 387.342 457.783 390.413 456.65 392.999C454.51 391.357 452.413 387.525 451.946 384.853C452.604 383.504 453.271 383.578 454.645 383.075Z"/>
	<path fill="#0DD2CC" d="M597.665 224.591C598.89 224.807 599.58 225.01 600.598 225.734L600.505 226.697C601.579 226.655 602.62 226.554 603.686 226.418L606.704 227.74C606.69 231.419 606.944 235.31 606.642 238.969C603.354 234.441 600.482 229.427 597.665 224.591Z"/>
	<path fill="#0C95CB" d="M468.891 468.471C463.621 471.8 459.407 475.482 455.266 480.135L451.834 484.228C452.576 481.14 453.439 478.094 454.309 475.04L456.867 469.474C460.861 469.187 464.929 469.045 468.891 468.471Z"/>
	<path fill="#FEFEFE" d="M625.842 627.046C629.665 627.48 633.258 628.678 635.707 631.833C637.38 633.99 638.057 636.626 637.692 639.331C637.145 643.374 634.603 646.038 631.446 648.327C629.454 648.772 627.259 649.159 625.313 648.327C623.252 647.446 621.734 645.502 620.973 643.437C619.512 639.475 620.134 634.671 621.872 630.908C622.872 628.742 623.57 627.866 625.842 627.046Z"/>
	<path fill="#E9445A" d="M591.174 770.087C590.752 760.442 596.494 749.579 600.856 741.244C602.592 743.403 604.208 745.612 606.574 747.116C606.742 747.223 606.906 747.338 607.077 747.442C609.005 748.607 611.578 748.942 613.761 749.401C608.387 758.318 601.992 767.251 597.145 776.422L591.174 770.087Z"/>
	<path fill="#0DD2CC" d="M562.922 393.771C568.592 395.775 576.552 397.88 581.033 402.005C568.783 405.358 558.9 414.237 551.805 424.43C546.103 417.248 542.807 408.963 538.708 400.827C546.566 398.041 554.919 396.204 562.922 393.771Z"/>
	<path fill="#0C95CB" d="M236.846 603.547C241.655 615.42 246.787 626.937 252.769 638.275C255.609 643.659 259.308 648.793 261.828 654.306C258.143 655.147 251.954 655.549 248.874 657.426Q246.518 657.702 244.147 657.633Q241.777 657.564 239.441 657.151C233.343 648.684 235.527 624.715 235.672 613.863C237.461 611.29 235.248 606.542 236.846 603.547Z"/>
	<path fill="#FEFEFE" d="M606.704 227.74C616.917 232.256 625.502 238.073 634.8 244.124C633.087 257.18 635.001 270.861 633.827 284.046C630.286 279.084 626.88 273.885 624.048 268.484C621.168 264.022 617.896 259.442 615.767 254.572C612.54 249.531 609.28 244.342 606.642 238.969C606.944 235.31 606.69 231.419 606.704 227.74Z"/>
	<path fill="#0DD2CC" d="M616.023 232.906C618.912 234.614 621.792 236.274 624.463 238.314C624.482 248.36 624.687 258.454 624.048 268.484C621.168 264.022 617.896 259.442 615.767 254.572C616.199 247.351 615.815 240.129 616.023 232.906Z"/>
	<path fill="#127EBB" d="M203.74 577.063C209.253 568.247 216.044 559.482 223.216 551.957C226.464 570.507 230.204 585.888 236.846 603.547C235.248 606.542 237.461 611.29 235.672 613.863Q235.655 608.557 235.486 603.254C227.861 600.215 219.173 598.936 211.16 597.159C211.487 595.536 211.898 593.834 211.967 592.177C212.228 585.981 207.678 581.238 203.74 577.063Z"/>
	<path fill="#FEFEFE" d="M616.445 652.335C618.37 652.582 620.081 652.967 621.815 653.876C626.179 656.163 628.293 659.885 629.789 664.382L629.488 665.269C626.263 674.998 614.661 690.739 614.819 700.703C614.847 702.436 615.333 703.387 616.612 704.585C618.651 705.28 619.705 704.763 621.698 704.187L621.727 704.653L615.666 710.542C615.383 710.753 615.094 710.957 614.801 711.153C611.849 713.137 606.129 716.157 602.512 715.093C601.149 714.693 600.188 713.65 599.582 712.409C598.53 710.257 598.406 707.543 598.68 705.202C599.272 700.139 601.225 694.938 602.788 690.092C606.913 677.309 611.782 664.916 616.445 652.335Z"/>
	<path fill="#0C95CB" d="M547.358 437.308C550.784 440.604 554.904 444.365 557.159 448.564C557.187 461.209 551.241 479.846 547.97 492.393C543.526 486.355 539.021 480.5 533.849 475.051C525.623 466.6 517.416 461.62 505.637 460.252C515.172 457.193 525.328 455.867 534.766 452.501C542.587 449.712 544.128 444.204 547.358 437.308Z"/>
	<path fill="#0DD2CC" d="M367.057 332.286C372.669 336.507 377.454 343.201 382.44 348.201C395.16 360.959 408.739 372.974 420.883 386.296Q416.327 397.53 412.003 408.856L409.602 414.653C408.111 413.176 400.656 407.978 400.45 407.319L401.828 407.266L402.185 406.771C399.123 404.252 399.034 400.916 398.154 397.258C393.947 379.771 382.325 365.697 367.163 356.42L367.057 332.286Z"/>
	<path fill="#FEFEFE" d="M603.967 605.814C607.153 605.852 610.015 606.835 612.501 608.865C615.381 611.218 617.248 614.937 616.95 618.708C616.497 624.45 610.556 635.463 608.137 641.099C603.625 651.608 586.764 692.806 588.326 703.139C588.523 704.441 588.792 704.912 589.797 705.726C591.793 705.889 593.545 704.963 595.359 704.23L589.985 709.953C587.814 711.87 585.299 714.035 582.407 714.666C580.742 715.03 578.532 714.792 577.176 713.69C575.504 712.331 574.824 709.86 574.513 707.824C571.811 690.129 588.651 645.058 595.17 627.133C597.671 620.255 599.699 611.728 603.967 605.814Z"/>
	<path fill="#127EBB" d="M590.126 573.231C591.886 574.688 593.37 577.256 594.889 579.029C597.848 582.48 601.005 585.434 604.435 588.394C595.995 612.224 585.386 635.302 577.572 659.377C574.439 659.598 571.304 659.962 568.178 660.265L565.885 656.893C559.52 648.267 554.181 639.021 547.587 630.5C552.009 630.66 555.76 630.428 559.806 628.366C575.549 620.342 585.124 589.345 590.126 573.231Z"/>
	<path fill="#0DD2CC" d="M525.532 605.883C534.231 617.26 538.035 632.273 546.543 643.783C539.752 655.155 532.493 666.835 527.047 678.911C542.854 680.245 558.718 680.743 574.52 681.998C563.475 684.534 552.204 686.405 541.109 688.797C536.802 689.763 532.515 690.892 528.101 691.222C526.109 697.927 525.108 704.965 523.907 711.845Q510.46 699.65 497.623 686.816C502.187 682.285 508.391 676.513 511.336 670.768C514.362 664.868 514.691 656.13 516.054 649.625C519.108 635.051 522.11 620.369 525.532 605.883Z"/>
	<path fill="#FEFEFE" d="M706.162 644.019C706.354 644.016 706.546 644.016 706.738 644.008C709.436 643.896 710.197 644.905 712.561 645.814C717.496 647.71 720.725 646.102 725.597 650.589C728.257 653.038 729.593 656.26 729.686 659.847C729.842 665.889 726.999 671.453 722.946 675.776C715.788 683.413 706.403 687.416 696.039 687.758C695.595 690.552 695.3 693.317 695.285 696.149C695.27 698.809 695.551 702.261 697.744 704.11C698.85 705.043 700.566 705.084 701.944 704.967C716.747 703.71 734.032 669.348 740.034 668.328C741.721 668.694 742.49 669.308 743.762 670.45C744.498 672.545 744.828 674.143 744.277 676.339C741.351 688.005 726.062 703.178 715.879 709.176C708.878 713.3 699.285 716.649 691.163 714.369C687.362 713.302 684.46 710.929 682.675 707.404C678.44 699.039 680.671 687.147 683.432 678.648C687.438 666.314 693.917 650.221 706.162 644.019Z"/>
	<path fill="#1A284F" d="M711.462 657.479C711.535 657.48 711.608 657.482 711.681 657.482C713.487 657.49 714.528 657.418 716.006 658.531C716.641 659.761 716.857 660.13 716.626 661.567C715.704 667.294 708.074 672.877 703.385 675.604C702.144 676.022 701.571 676.378 700.274 676.092C700.115 675.416 700.072 674.872 700.254 674.191C701.663 668.927 706.888 660.378 711.462 657.479Z"/>
	<path fill="#F8904B" d="M513.27 110.009C519.447 118.873 524.509 128.872 530.173 138.112C539.864 153.926 549.174 169.925 558.612 185.885C562.477 192.42 566.717 198.774 570.458 205.373C565.237 205.361 559.631 203.099 554.326 202.571C541.052 201.25 527.295 202.078 514.075 203.643Q513.706 177.438 513.624 151.23C513.586 137.477 513.872 123.741 513.27 110.009Z"/>
	<path fill="#B21241" d="M514.135 814.005C529.156 813.599 546.006 810.576 560.553 806.864C567.651 805.052 574.717 802.35 581.95 801.221L529.635 887.486C524.883 895.479 519.676 903.233 515.134 911.342C513.349 879.036 514.783 846.378 514.135 814.005Z"/>
	<path fill="#F86397" d="M390.476 272.594C390.219 275.429 374.031 298.519 371.216 303.085C369.135 306.46 367.316 309.947 365.569 313.504C362.65 313.462 359.094 313.144 356.7 315.13C352.317 318.765 353.785 344.645 353.462 351.455C328.289 343.716 302.64 347.618 279.227 358.952C278.513 359.344 277.746 359.559 276.977 359.822C277.012 359.538 276.991 359.24 277.08 358.968C278.24 355.437 287.033 344.439 289.667 341.233C316.409 308.695 350.703 285.963 390.476 272.594Z"/>
	<path fill="#FEFEFE" d="M663.605 599.417C665.057 599.645 666.602 599.983 667.97 600.528C671.214 601.82 674.097 604.25 675.441 607.514C676.392 609.823 676.481 612.164 675.965 614.588C674.314 622.336 665.555 636.482 662.3 645.07L661.978 645.934C666.769 644.919 671.526 643.463 676.295 642.305C680.038 643.537 683.794 645.423 685.646 649.141C687.053 651.964 686.654 655.04 685.598 657.909C681.126 670.055 669.868 676.561 658.857 681.83C665.685 686.185 667.32 689.965 667.991 697.837C668.09 698.994 668.128 700.591 668.706 701.626C669.155 702.429 669.479 702.977 670.365 703.271C672.652 704.029 675.202 702.541 677.282 701.647C675.263 705.208 673.252 708.908 670.11 711.621C666.623 714.632 662.817 715.195 658.37 714.753C656.944 714.204 655.57 713.539 654.569 712.338C651.239 708.344 653.291 700.732 653.645 695.937C651.475 692.388 649.48 690.225 645.931 688.016C644.39 693.226 643.196 698.369 642.08 703.681C641.316 707.314 640.326 712.302 636.72 714.223C634.699 715.299 632.111 715.165 629.959 714.57C628.236 714.094 625.942 712.947 625.34 711.105C622.351 701.959 657.067 611.976 663.605 599.417Z"/>
	<path fill="#1A284F" d="M663.47 653.556C665.297 653.507 666.245 653.703 667.876 654.518C668.685 655.595 668.932 655.848 668.838 657.27C668.463 662.98 656.607 673.124 652.243 677.131L648.799 679.975C650.883 671.771 653.634 662.881 657.878 655.489C659.698 654.667 661.561 654.124 663.47 653.556Z"/>
	<path fill="#127EBB" d="M518.722 606.334C519.051 606.601 519.199 606.698 519.488 607.066C520.037 607.765 520.567 608.606 520.621 609.518C520.941 614.899 517.69 623.576 516.367 629.097C513.658 640.399 510.701 651.826 508.823 663.298Q465.053 663.591 421.283 663.221C400.752 663.227 380.219 663.681 359.688 663.422C363.77 656.306 368.04 649.184 371.253 641.623L373.319 636.206Q375.348 639.159 377.789 641.781Q380.23 644.404 383.03 646.638C389.226 651.67 398.869 657.267 407.131 656.162C420.682 654.351 431.883 636.591 439.296 626.46C444.739 630.256 449.246 635.35 454.939 638.775C462.296 643.202 471.986 643.391 480.11 641.358C498.974 636.637 509.171 622.073 518.722 606.334Z"/>
	<path fill="#E9445A" d="M444.856 806.81C468 811.472 490.47 814.145 514.135 814.005C514.783 846.378 513.349 879.036 515.134 911.342L512.247 917.306C506.078 907.992 500.584 898.214 494.783 888.667C489.14 879.379 483.127 870.323 477.553 860.992C466.736 842.885 456.304 824.531 444.856 806.81Z"/>
	<path fill="#FCB97D" d="M425.715 243.48C432.815 229.916 442.092 216.905 450.478 204.086L481.519 155.714C488.57 144.72 495.123 133.394 501.952 122.257C504.95 117.366 507.778 112.129 511.232 107.549C512.41 107.932 512.662 108.966 513.27 110.009C513.872 123.741 513.586 137.477 513.624 151.23Q513.706 177.438 514.075 203.643L513.977 203.88C490.945 207.387 467.094 216.706 447.149 228.605C442.859 231.164 429.021 242.812 425.715 243.48Z"/>
	<path fill="#E9445A" d="M684.939 307.412C697.66 333.328 704.273 366.143 704.849 394.909C705.011 403.054 704.101 411.175 704.005 419.31C681.33 434.068 674.293 443.743 666.12 469.792C664.135 467.878 662.004 466.697 659.61 465.395C660.654 457.582 660.731 450.276 657.433 442.947C653.78 434.828 647.991 429.774 639.692 426.608C659.179 404.758 674.332 374.416 680.515 345.839C683.227 333.302 684.196 320.192 684.939 307.412Z"/>
	<path fill="#E9445A" d="M514.552 708.881C524.732 717.321 534.39 726.343 544.607 734.772Q559.777 747.2 574.632 760.002C579.315 763.974 584.332 767.717 588.748 771.97C588.892 771.956 589.039 771.965 589.179 771.93C590.587 771.578 590.569 771.324 591.174 770.087L597.145 776.422L595.409 778.548C592.109 786.385 586.464 794.029 581.95 801.221C574.717 802.35 567.651 805.052 560.553 806.864C546.006 810.576 529.156 813.599 514.135 814.005L514.554 752.034C514.67 737.649 515.028 723.263 514.552 708.881Z"/>
	<path fill="#292C47" d="M591.174 770.087L597.145 776.422L595.409 778.548C593.104 776.473 590.95 774.158 588.748 771.97C588.892 771.956 589.039 771.965 589.179 771.93C590.587 771.578 590.569 771.324 591.174 770.087Z"/>
	<path fill="#EA4D10" d="M514.075 203.643C527.295 202.078 541.052 201.25 554.326 202.571C559.631 203.099 565.237 205.361 570.458 205.373C578.803 218.095 586.071 231.708 593.706 244.878C598.227 252.678 605.973 263.939 608.689 272.191C602.661 271.465 596.627 270.563 590.55 270.421C564.7 269.821 538.666 276.904 515.079 286.862C513.398 278.977 514.397 266.975 514.358 258.725L513.977 203.88L514.075 203.643Z"/>
	<path fill="#0DD2CC" d="M233.336 507.244C237.062 510.508 240.399 515.77 243.61 519.67Q251.011 528.498 259.527 536.256C271.51 547.177 285.936 554.649 298.373 564.942C304.291 569.841 310.578 575.337 311.151 583.515C312.355 600.696 305.365 617.273 294.469 630.184C288.707 636.485 281.999 641.621 275.183 646.703C269.277 640.061 265.186 631.957 261.044 624.148Q259.257 620.798 257.578 617.393Q255.9 613.988 254.331 610.53Q252.763 607.073 251.307 603.566Q249.851 600.06 248.508 596.509Q247.166 592.958 245.938 589.365Q244.711 585.772 243.599 582.142Q242.488 578.512 241.494 574.848Q240.5 571.183 239.624 567.489Q238.749 563.795 237.992 560.074Q237.236 556.354 236.6 552.611Q235.964 548.868 235.448 545.107Q234.933 541.345 234.539 537.569Q234.145 533.793 233.872 530.006Q233.6 526.22 233.449 522.426Q233.299 518.632 233.27 514.836Q233.242 511.039 233.336 507.244Z"/>
	<path fill="#0DD2CC" d="M348.049 419.706C351.186 419.253 354.604 419.416 357.78 419.352C357.179 423.08 356.457 426.707 355.524 430.367C347.058 432.305 329.896 434.925 322.82 438.018C320.723 438.934 319.032 440.157 317.701 442.037C315.582 445.03 314.357 449.239 315.08 452.892C316.502 460.077 340.132 487.256 346.816 491.799C348.59 493.004 350.42 494.067 352.571 494.393C361.17 495.698 374.889 490.675 383.861 489.109C373.502 510.473 363.893 531.918 357.166 554.716L356.91 554.793C355.575 554.254 350.417 545.979 348.944 544.152Q342.687 536.499 335.22 530.021C316.603 513.772 292.883 504.159 274.319 487.625C275.448 473.679 282.8 459.473 291.672 448.876Q292.325 448.095 292.998 447.33Q293.67 446.565 294.362 445.818Q295.053 445.07 295.763 444.339Q296.472 443.609 297.2 442.896Q297.927 442.184 298.672 441.489Q299.417 440.795 300.179 440.119Q300.941 439.444 301.72 438.787Q302.498 438.131 303.293 437.493Q304.087 436.856 304.897 436.239Q305.707 435.622 306.532 435.025Q307.357 434.428 308.197 433.852Q309.037 433.276 309.891 432.721Q310.744 432.165 311.611 431.631Q312.479 431.097 313.359 430.585Q314.239 430.073 315.132 429.583Q316.024 429.092 316.929 428.624Q317.833 428.156 318.749 427.711Q319.665 427.266 320.591 426.843Q321.518 426.42 322.455 426.021Q323.391 425.622 324.338 425.245Q325.284 424.869 326.24 424.517Q327.195 424.164 328.159 423.835Q329.123 423.507 330.094 423.202Q331.066 422.897 332.045 422.617Q333.024 422.336 334.01 422.08Q334.995 421.824 335.987 421.592Q336.979 421.36 337.976 421.153Q338.973 420.946 339.975 420.764Q340.977 420.582 341.983 420.425Q342.989 420.267 343.999 420.135Q345.008 420.003 346.021 419.895Q347.034 419.788 348.049 419.706Z"/>
	<path fill="#F1A4BE" d="M679.811 295.372C681.906 299.189 683.717 303.229 684.939 307.412C684.196 320.192 683.227 333.302 680.515 345.839C674.332 374.416 659.179 404.758 639.692 426.608C629.459 424.418 625.42 427.342 616.545 430.892C612.768 428.287 612.198 415.07 602.542 407.26C596.083 402.036 588.964 401.311 581.033 402.005C576.552 397.88 568.592 395.775 562.922 393.771C566.204 391.814 570.425 390.551 573.968 389.055Q584.221 384.785 594.116 379.74C630.329 361.118 661.93 332.314 679.811 295.372Z"/>
	<path fill="#127EBB" d="M784.465 441.103L865.685 482.615C884.644 492.125 904.359 501.195 922.398 512.39C884.135 532.841 844.507 551.011 805.536 570.058C797.477 573.997 789.663 578.421 781.672 582.494C764.123 591.439 746.117 600.184 728.082 608.099C727.921 607.993 727.762 607.885 727.6 607.78C721.348 603.747 708.893 607.861 705.885 603.268L705.96 601.953C709.304 600.936 713.925 601.778 717.509 601.528Q724.753 600.956 731.844 599.365C763.963 592.273 791.946 566.556 807.261 537.963C812.93 527.381 824.683 502.452 821.029 490.916C818.502 482.941 806.636 477.179 800.399 472.122Q800.489 471.079 800.532 470.034C800.601 468.079 800.39 465.548 798.745 464.202C797.202 462.939 795.323 463.207 793.529 463.522C793.621 452.859 791.841 448.667 784.465 441.103Z"/>
	<path fill="#F1A4BE" d="M333.019 748.217C345.623 750.591 359.608 751.414 372.403 751.224C419.11 750.532 467.863 731.096 500.752 697.521C505.505 701.04 510 705.095 514.552 708.881C515.028 723.263 514.67 737.649 514.554 752.034L514.135 814.005C490.47 814.145 468 811.472 444.856 806.81C415.688 800.539 378.327 782.827 353.986 765.479C346.562 760.189 339.842 754.238 333.019 748.217Z"/>
	<path fill="#F8904B" d="M425.715 243.48C429.021 242.812 442.859 231.164 447.149 228.605C467.094 216.706 490.945 207.387 513.977 203.88L514.358 258.725C514.397 266.975 513.398 278.977 515.079 286.862C471.544 305.984 448.854 330.732 422.323 369.24C414.327 362.235 407.042 353.891 399.568 346.313C391.679 338.314 383.237 330.671 375.946 322.121C385.687 307.12 395.384 291.902 404.808 276.696C411.709 265.561 418.226 254.253 425.715 243.48Z"/>
	<path fill="#FEFEFE" d="M664.915 543.487C660.62 553.205 656.322 563.321 649.595 571.636C643.377 579.321 635.877 584.811 625.805 585.756C617.821 586.505 609.705 584.324 603.529 579.088C592.678 569.889 592.225 553.757 594.167 540.761C594.935 535.624 596.408 530.274 596.73 525.115C596.885 522.633 596.075 519.987 595.866 517.499C597.396 516.205 598.902 515.95 600.868 516.016C607.732 516.25 616.718 519.351 621.331 524.544C627.523 531.515 622.316 545.409 622.009 553.946C621.863 557.997 622.112 563.867 625.184 566.854C626.27 567.911 627.714 568.381 629.211 568.264C636.307 567.709 641.507 562.029 645.006 556.322C657.474 535.988 663.255 492.133 671.315 467.886C674.336 458.797 678.684 449.988 684.766 442.542C697.582 426.853 715.423 416.708 735.7 414.77C743.446 414.029 751.17 415.188 757.3 420.4C763.293 425.494 766.285 432.711 766.716 440.434C767.653 457.271 759.831 474.245 748.639 486.487C732.558 504.076 717.634 510.433 694.216 511.448C693.685 516.751 693.188 522.102 693.771 527.423C694.414 533.287 696.435 539.158 701.293 542.857C706.558 546.866 713.834 547.072 720.143 546.2C751.721 541.835 773.034 512.151 784.785 484.936C787.476 478.702 789.263 469.021 793.255 463.861C793.344 463.746 793.438 463.635 793.529 463.522C795.323 463.207 797.202 462.939 798.745 464.202C800.39 465.548 800.601 468.079 800.532 470.034Q800.489 471.079 800.399 472.122C800.156 473.458 799.828 474.762 799.459 476.068C791.055 505.795 771.75 539.996 744.084 555.344C727.908 564.318 706.588 569.512 688.405 564.135C677.278 560.844 670.292 553.468 664.915 543.487Z"/>
	<path fill="#1A284F" d="M734.257 433.07C735.413 432.989 736.998 432.732 738.096 433.144C739.195 433.555 739.875 434.643 740.182 435.71C740.771 437.753 740.32 440.602 740.081 442.705C738.73 454.641 734.599 466.843 728.044 476.94C721.375 487.212 714.775 492.749 702.666 495.277C701.398 495.406 700.081 495.597 698.808 495.472C697.64 495.358 697.52 495.461 696.76 494.512C698.237 484.264 702.718 473.069 706.828 463.557C712.726 449.908 720.036 438.705 734.257 433.07Z"/>
	<path fill="#0DD2CC" d="M634.8 244.124C636.753 245.183 638.689 246.064 640.07 247.873C651.325 254.295 666.712 264.397 675.011 274.438C670.247 280.61 666.699 289.264 662.606 296.131C659.981 301.036 657.276 306.117 653.788 310.465C650.965 314.902 647.558 319.006 644.24 323.082C644.139 323.27 644.05 323.465 643.938 323.647C640.847 328.621 635.641 333.392 631.412 337.435C605.201 362.493 570.314 378.936 535.452 387.895C531.067 389.021 526.647 387.609 522.182 388.703C506.264 392.604 490.337 397.744 474.13 400.228C470.897 394.029 466.632 380.975 459.954 378.259C455.629 376.5 451.801 378.257 447.856 380.017C442.829 378.212 439.036 377.426 433.682 377.433C441.554 365.057 449.286 353.468 459.53 342.855C493.899 307.245 540.91 283.129 591.225 284.6Q604.236 285.085 616.999 287.656C621.399 288.551 625.839 290.724 630.359 290.644C631.33 290.261 631.862 290.004 632.559 289.189C633.814 287.722 634.055 285.877 633.827 284.046C635.001 270.861 633.087 257.18 634.8 244.124Z"/>
	<path fill="#FEFEFE" d="M640.07 247.873C651.325 254.295 666.712 264.397 675.011 274.438C670.247 280.61 666.699 289.264 662.606 296.131C659.981 301.036 657.276 306.117 653.788 310.465C650.965 314.902 647.558 319.006 644.24 323.082C643.031 316.489 643.908 308.521 643.915 301.767C643.932 285.032 644.321 268.196 643.743 251.474C642.444 250.319 641.192 249.204 640.07 247.873Z"/>
	<path fill="#0DD2CC" d="M653.388 259.919C656.955 262.957 659.837 265.893 662.363 269.862C662.714 278.476 661.423 287.629 662.606 296.131C659.981 301.036 657.276 306.117 653.788 310.465C652.979 304.692 653.493 298.236 653.5 292.395Q653.584 276.157 653.388 259.919Z"/>
	<path fill="#FEFEFE" d="M248.874 657.426C264.868 656.789 280.929 649.215 292.987 638.926C307.048 626.928 315.459 610.893 316.898 592.424C320.949 540.441 261.629 528.633 234.183 495.955C223.662 483.429 218.478 468.409 219.922 452.076C222.131 427.109 233.902 406.907 253.019 390.941C276.401 371.412 306.546 359.173 337.38 362.021C353.334 363.494 367.614 369.132 377.981 381.775C387.786 393.734 389.872 407.816 388.381 422.799C379.622 425.38 370.436 428.181 361.458 429.808Q361.86 427.988 362.182 426.152C363.857 416.385 363.432 404.417 357.308 396.182C352.683 389.964 345.914 386.431 338.306 385.476C317.832 382.906 298.079 391.567 282.303 404.016C268.861 414.623 256.162 431.088 254.314 448.618C250.57 484.151 292.557 500.817 316.23 517.631C323.396 522.721 329.819 528.532 335.366 535.358C348.019 550.925 352.629 566.929 350.448 586.849Q350.309 588.164 350.138 589.475Q349.967 590.786 349.763 592.092Q349.559 593.398 349.323 594.699Q349.087 596 348.819 597.295Q348.551 598.59 348.251 599.877Q347.951 601.165 347.62 602.445Q347.288 603.725 346.925 604.996Q346.562 606.267 346.167 607.529Q345.773 608.791 345.347 610.042Q344.921 611.294 344.465 612.535Q344.008 613.776 343.521 615.005Q343.034 616.234 342.517 617.451Q342 618.668 341.453 619.871Q340.905 621.075 340.329 622.264Q339.752 623.454 339.146 624.629Q338.54 625.804 337.905 626.964Q337.27 628.124 336.607 629.267Q335.943 630.411 335.252 631.538Q334.561 632.665 333.842 633.774Q333.122 634.884 332.376 635.975Q331.63 637.066 330.857 638.139Q330.084 639.211 329.284 640.265Q328.485 641.318 327.66 642.351Q326.835 643.384 325.984 644.396Q325.134 645.408 324.259 646.399Q323.384 647.39 322.484 648.359Q321.585 649.328 320.662 650.275Q319.738 651.221 318.792 652.145Q317.846 653.068 316.877 653.968Q315.908 654.867 314.918 655.743Q313.927 656.618 312.915 657.469Q311.903 658.32 310.87 659.145C289.105 676.436 258.344 687.064 230.451 683.623C212.591 681.42 194.97 672.202 183.973 657.795C173.27 643.773 165.736 623.509 168.328 605.717C169.485 597.781 172.823 590.099 179.521 585.299C184.063 582.044 190.136 580.023 195.723 581.176C210.936 584.316 203.559 600.676 203.473 610.852C203.388 620.784 205.708 630.641 211.189 639.007C217.814 649.121 227.775 654.739 239.441 657.151Q241.777 657.564 244.147 657.633Q246.518 657.702 248.874 657.426Z"/>
	<path fill="#F8904B" d="M348.222 677.004L448.526 676.618L479.292 676.554C485.77 676.546 492.543 676.222 498.974 677.07C495.709 680.719 490.974 683.579 488.127 687.381C488.525 688.519 489.172 689.121 489.98 689.985C488.576 695.012 460.844 712.226 454.822 715.612C415.129 737.931 373.541 742.134 329.084 734.501C322.812 733.424 299.039 727.767 295.217 728.041C304.335 738.697 313.649 749.007 324.097 758.389Q327.072 761.027 330.124 763.576Q333.177 766.124 336.304 768.58Q339.431 771.035 342.631 773.396Q345.83 775.758 349.099 778.022Q352.367 780.286 355.702 782.452Q359.037 784.617 362.435 786.682Q365.833 788.747 369.292 790.709Q372.75 792.671 376.265 794.529Q379.781 796.387 383.351 798.139Q386.92 799.891 390.541 801.535Q394.161 803.179 397.829 804.715Q401.497 806.25 405.209 807.675Q408.921 809.099 412.674 810.412Q416.428 811.726 420.218 812.926Q424.009 814.126 427.834 815.212Q431.659 816.299 435.515 817.27L454.012 848.902C412.897 864.56 371.135 878.59 329.754 893.529C339.177 869.142 351.502 844.628 362.449 820.762C354.163 823.549 345.798 826.037 337.554 828.958C314.527 837.118 291.756 846.028 268.738 854.171L205.405 876.74C196.128 880.041 186.749 883.021 177.55 886.544C184.237 872.028 193.799 858.356 201.774 844.466L253.092 754.857C256.811 748.377 260.361 741.801 264.104 735.336C267.736 729.062 271.726 722.942 274.626 716.286C276.604 715.552 279.525 715.553 281.66 715.278C287.044 713.866 292.582 712.77 297.849 710.961C312.121 706.059 327.614 696.691 338.84 686.652C342.21 683.637 345.113 680.269 348.222 677.004Z"/>
	<path fill="#FCB97D" d="M274.626 716.286C276.604 715.552 279.525 715.553 281.66 715.278L282.523 715.815C281.571 716.346 280.815 716.269 279.749 716.319C277.409 716.429 276.266 716.857 274.698 718.602C273.39 720.057 272.744 721.516 272.156 723.353C271.058 726.78 268.552 729.718 266.751 732.811C264.746 736.254 263.422 740.045 261.456 743.493C259.253 747.357 256.348 750.841 254.215 754.739C250.926 760.753 248.226 767.228 244.727 773.11C242.552 776.767 240.006 780.2 237.798 783.84Q225.138 804.716 213.464 826.16C212.1 828.662 210.296 830.998 209.019 833.517C207.382 836.748 207.182 840.541 205.555 843.86C201.803 851.511 191.43 863.854 195.565 872.537C195.956 873.359 196.222 873.504 197.125 873.748C202.474 875.196 209.173 870.785 214.619 871.059L214.827 872.226C217.081 871.666 222.98 870.032 224.671 868.631C225.802 867.694 226.003 866.007 227.404 865.29C227.6 865.461 227.793 865.635 227.991 865.803C228.547 866.273 228.971 866.575 229.608 866.894C229.835 866.728 230.058 866.556 230.288 866.395C232.232 865.035 234.719 865.054 236.898 864.296L269.298 853.08C300.188 842.244 330.448 829.369 361.875 820.041C362.572 820.667 362.632 820.459 362.683 821.297C362.839 823.85 343.324 864.864 340.37 871.453C338.974 874.567 336.468 878.755 335.8 882.017C335.631 882.844 335.851 883.714 335.996 884.526C337.676 886.004 338.814 886.187 339.822 888.356C341.218 888.713 342.788 888.024 344.159 887.587C355.391 884.008 366.397 879.586 377.456 875.516C388.836 871.328 400.361 867.481 411.774 863.374L432.381 855.875C436.384 854.452 440.877 853.367 444.534 851.198C445.173 850.819 445.716 850.401 446.291 849.933L445.871 849.006L446.54 849.203L446.189 848.911C446.315 848.786 446.457 848.675 446.567 848.536C447.396 847.484 447.635 845.932 447.974 844.655L448.747 844.439L448.763 844.453L449.656 844.05C447.961 836.872 437.478 826.23 435.843 819.279C430.33 815.132 413.659 812.442 406.069 809.331C368.299 793.854 333.072 771.949 305.587 741.396C301.768 737.151 296.798 732.526 293.904 727.66C294.388 727.75 294.796 727.773 295.217 728.041C304.335 738.697 313.649 749.007 324.097 758.389Q327.072 761.027 330.124 763.576Q333.177 766.124 336.304 768.58Q339.431 771.035 342.631 773.396Q345.83 775.758 349.099 778.022Q352.367 780.286 355.702 782.452Q359.037 784.617 362.435 786.682Q365.833 788.747 369.292 790.709Q372.75 792.671 376.265 794.529Q379.781 796.387 383.351 798.139Q386.92 799.891 390.541 801.535Q394.161 803.179 397.829 804.715Q401.497 806.25 405.209 807.675Q408.921 809.099 412.674 810.412Q416.428 811.726 420.218 812.926Q424.009 814.126 427.834 815.212Q431.659 816.299 435.515 817.27L454.012 848.902C412.897 864.56 371.135 878.59 329.754 893.529C339.177 869.142 351.502 844.628 362.449 820.762C354.163 823.549 345.798 826.037 337.554 828.958C314.527 837.118 291.756 846.028 268.738 854.171L205.405 876.74C196.128 880.041 186.749 883.021 177.55 886.544C184.237 872.028 193.799 858.356 201.774 844.466L253.092 754.857C256.811 748.377 260.361 741.801 264.104 735.336C267.736 729.062 271.726 722.942 274.626 716.286Z"/>
	<path fill="#FEFEFE" d="M427.788 386.726C431.851 384.476 435.531 383.256 440.211 384.524C444.243 385.617 447.93 388.403 449.805 392.169C452.26 397.099 451.182 401.987 449.369 406.905Q447.973 410.664 446.522 414.402C456.273 412.51 525.456 393.923 528.768 394.666C529.676 396.651 528.619 399.1 527.885 401.065C526.017 406.062 523.583 410.894 521.16 415.64Q499.372 420.733 477.653 426.11C464.924 429.374 452.176 433.212 439.202 435.366C433.448 447.766 428.905 460.807 423.793 473.487C415.597 493.816 376.442 586.164 381.982 601.444C382.549 603.009 383.524 604.278 385.053 604.994C386.299 605.578 387.541 605.422 388.768 604.896C398.134 600.879 414.143 575.264 417.906 565.148C420.317 558.663 421.438 551.472 423.402 544.806C430.224 521.652 440.403 497.539 457.552 480.1C462.573 475.767 467.844 472.121 473.464 468.63C475.67 468.182 478.362 466.682 480.56 465.913C490.008 462.607 499.635 461.147 509.214 464.831C516.621 467.681 522.355 472.969 525.504 480.341C530.638 492.363 529.781 510.335 526.639 522.761C525.18 528.529 522.91 533.997 520.687 539.5C525.03 537.574 528.655 535.19 532.239 532.078C537.459 527.545 542.993 521.639 546.263 515.504C550.568 507.426 561.923 462.287 562.459 452.799C562.88 445.336 558.656 441.166 554.001 435.968Q554.19 434.706 554.437 433.455C555.906 426.221 562.335 420.287 568.237 416.32C574.002 412.445 581.852 408.431 588.967 409.993C592.362 410.738 595.135 412.743 596.954 415.704C603.647 426.603 596.821 447.091 594.083 458.617C602.009 449.179 613.343 437.586 625.845 434.959C630.246 434.035 636.598 434.969 640.33 437.686C644.07 440.408 646.635 444.913 647.239 449.478C648.884 461.91 637.795 475.486 629.592 483.581C626.389 486.742 622.331 489.529 619.673 493.149C619.529 494.034 619.381 494.148 619.781 495.013C620.707 497.016 623.073 499.16 625.186 499.822C630.219 501.398 636.367 499.338 640.756 496.714C650.608 490.824 657.054 476.032 659.61 465.395C662.004 466.697 664.135 467.878 666.12 469.792C661.622 484.836 654.599 507.101 639.879 514.996C634.056 518.12 626.066 519.547 619.605 517.693C613.006 515.799 607.721 510.953 604.491 504.996C604.241 504.536 604.007 504.067 603.786 503.593C594.865 511.949 586.43 520.559 578.049 529.447C574.637 533.064 570.613 536.739 567.865 540.875C564.741 545.577 563.449 551.984 561.559 557.282C555.929 573.067 545.585 595.808 531.068 604.63C527.761 601.904 523.033 598.322 522.554 593.72C521.925 587.68 531.12 560.229 533.122 552.207C525.436 556.337 519.777 558.392 510.925 558.175C502.581 577.223 484.585 600.7 464.955 608.494C456.29 611.935 447.167 612.357 438.513 608.635C430.712 605.28 424.466 599.526 419.679 592.608C414.673 603 402.1 618.291 390.938 622.323C385.009 624.465 378.399 623.457 372.846 620.684C365.202 616.866 360.076 609.601 357.616 601.568C354.714 592.09 355.762 581.237 357.709 571.682C360.72 556.906 366.491 542.7 371.961 528.705L394.319 472.458C397.982 463.099 401.967 453.747 404.998 444.162C388.044 448.701 371.098 452.751 354.007 456.713C346.086 458.55 337.762 461.311 329.669 461.902C325.67 460.169 322.166 458.176 320.58 453.817C319.856 451.826 319.866 449.472 320.917 447.594C322.846 444.146 326.491 442.73 330.128 441.856C337.479 440.09 344.956 438.792 352.334 437.123L387.846 428.791C395.96 426.964 404.278 425.471 412.285 423.267C415.804 412.188 421.714 396.554 427.788 386.726Z"/>
	<path fill="#1A284F" d="M611.006 465.305L612.702 465.57L613.298 466.484C613.546 469.665 611.198 473.044 609.401 475.559C606.418 479.736 602.491 483.416 599.021 487.191C591.839 495.002 584.431 502.928 577.922 511.309L577.119 511.985L576.731 511.686C576.757 511.449 576.776 511.21 576.808 510.973C578.35 499.457 601.372 472.878 611.006 465.305Z"/>
	<path fill="#1A284F" d="M494.732 477.467C495.762 477.422 496.897 477.335 497.896 477.633C499.758 478.188 501.316 479.837 502.262 481.471C506.98 489.617 504.392 503.047 502.081 511.559C501.232 514.685 499.234 523.854 496.653 525.335C496.022 520.395 501.981 507.061 502.478 500.465C502.658 498.087 502.55 494.886 500.658 493.133C499.505 492.064 497.994 491.91 496.506 492.09C491.726 492.668 487.259 496.229 484.308 499.839C478.508 506.936 474.524 518.07 475.561 527.283C476.52 535.795 480.988 541.771 487.432 546.942C483.557 553.323 479.762 559.652 475.371 565.699C468.874 574.746 461.682 585.455 452.37 591.729C450.062 593.284 447.987 594.522 445.162 593.993C444.334 593.458 443.884 593.111 443.392 592.225C438.535 583.481 454.138 540.013 458.207 529.386C464.352 513.341 478.912 484.491 494.732 477.467Z"/>
</svg>
